<?xml version="1.0" encoding="utf-8"?>
<!DOCTYPE svg PUBLIC "-//W3C//DTD SVG 1.1//EN" "http://www.w3.org/Graphics/SVG/1.1/DTD/svg11.dtd">
<svg version="1.1" id="레이어_1" xmlns="http://www.w3.org/2000/svg" xmlns:xlink="http://www.w3.org/1999/xlink" x="0px"
	 y="0px" width="500px" height="500px" viewBox="0 0 500 500" enable-background="new 0 0 500 500" xml:space="preserve">
<path fill="#FFFFFF" d="M441.823,252.279l0.038-0.158l-0.143-0.313c-0.395-1.431-0.903-2.845-1.677-4.19l-1.179-2.044v-0.003
	l-0.003-0.006l-10.104-17.555c-0.989-1.718-2.271-3.206-3.73-4.473l-0.007-0.013l-0.01-0.003c-3.189-2.765-7.309-4.395-11.658-4.395
	c-3.093,0-6.141,0.821-8.819,2.372l-34.48,19.97L87.438,35.158c-2.688-1.963-5.231-3.35-7.576-4.192
	c-3.909-1.402-7.269-1.29-9.835,0.196c-2.568,1.49-4.346,4.352-5.09,8.448c-0.445,2.459-0.52,5.36-0.169,8.677l36.829,348.641
	l-35.07,20.312c-8.468,4.902-11.381,15.8-6.491,24.297l11.286,19.606c2.173,3.78,5.67,6.535,9.704,7.902l0.063,0.061h0.107
	c1.769,0.575,3.62,0.916,5.528,0.916c3.092,0,6.144-0.818,8.822-2.369l338.004-195.737
	C440.534,267.876,443.652,259.771,441.823,252.279z M194.112,154.233l25.083,10.412l9.091-5.917l12.284,8.968l-0.723,9.272
	l21.09,17.138l-26.391,6.366l-9.735,25.418l-14.189-23.213l-27.112-1.428l17.623-20.713L194.112,154.233z M87.247,108.353
	l38.204,33.98l55.24-13.707l-22.752,52.315l30.064,48.459l-56.636-5.54l-28.352,33.766L87.247,108.353z M116.802,388.122
	l-7.898-74.758l184.699-106.954l60.594,44.237L116.802,388.122z"/>
</svg>
